<svg class="uhb-c-icon uhb-c-icon--search" xmlns="http://www.w3.org/2000/svg" viewBox="0 0 24 24" aria-hidden="true" focusable="false">
  <path d="M16.96 14.12L22 19.16L19.16 22L14.12 16.96C12.4344 17.9543 10.4439 18.2997 8.52187 17.9314C6.5998 17.563 4.87807 16.5063 3.67945 14.9593C2.48083 13.4122 1.88763 11.4811 2.01106 9.52797C2.13449 7.57482 2.96607 5.73375 4.34991 4.34991C5.73375 2.96607 7.57482 2.13449 9.52797 2.01106C11.4811 1.88763 13.4122 2.48083 14.9593 3.67945C16.5063 4.87807 17.563 6.5998 17.9314 8.52187C18.2997 10.4439 17.9543 12.4344 16.96 14.12V14.12ZM12.87 12.86C13.4382 12.3005 13.8263 11.5839 13.9843 10.8022C14.1423 10.0205 14.063 9.2095 13.7566 8.47321C13.4503 7.73692 12.9309 7.10901 12.2651 6.6701C11.5992 6.23118 10.8174 6.00131 10.02 6.00999C9.35853 6.00915 8.70708 6.17154 8.12341 6.48277C7.53974 6.79399 7.04188 7.24443 6.67399 7.79415C6.3061 8.34387 6.07954 8.97587 6.0144 9.63412C5.94926 10.2924 6.04756 10.9565 6.30058 11.5677C6.55359 12.1788 6.95351 12.7181 7.46486 13.1377C7.97622 13.5573 8.58321 13.8442 9.23201 13.973C9.88081 14.1018 10.5514 14.0686 11.1842 13.8762C11.8171 13.6837 12.3927 13.3381 12.86 12.87H12.87V12.86Z"/>
</svg>
