<svg class="uhb-c-icon uhb-c-icon--telephone" xmlns="http://www.w3.org/2000/svg" viewBox="0 0 24 24" aria-hidden="true" focusable="false">
  <path d="M13.5032 14.91C12.873 15.85 11.6027 16.07 10.6824 15.4L8.59184 13.31C7.92165 12.39 8.14171 11.12 9.08197 10.49L10.1423 9.78003C11.0825 9.15003 11.3626 7.84003 10.7724 6.87003L8.4618 3.12003C7.86163 2.15003 6.52126 1.73003 5.48097 2.17003C5.48097 2.17003 2 3.65003 2 6.50003C2 15.06 8.94194 22 17.4943 22C20.3451 22 21.8255 18.52 21.8255 18.52C22.2657 17.48 21.8455 16.13 20.8753 15.54L17.1242 13.23C16.1539 12.63 14.8436 12.92 14.2134 13.86L13.5032 14.91Z"/>
</svg>
