<svg class="uhb-c-icon uhb-c-icon--link" xmlns="http://www.w3.org/2000/svg" viewBox="0 0 24 24" aria-hidden="true" focusable="false">
  <path d="M17.98 2C18.7744 1.99821 19.5515 2.23243 20.2126 2.67293C20.8737 3.11343 21.389 3.74037 21.6933 4.47421C21.9975 5.20806 22.0769 6.01574 21.9215 6.79479C21.766 7.57384 21.3826 8.28916 20.82 8.85L17.98 11.68C17.3526 12.3098 16.5332 12.7127 15.6513 12.825C14.7694 12.9373 13.8752 12.7525 13.11 12.3L12.23 13.19C12.6808 13.9557 12.8646 14.8495 12.7524 15.731C12.6401 16.6124 12.2383 17.4317 11.61 18.06L8.77 20.9C8.01546 21.6506 6.99366 22.0706 5.92939 22.0678C4.86512 22.065 3.84556 21.6395 3.095 20.885C2.34444 20.1305 1.92436 19.1087 1.92717 18.0444C1.92998 16.9801 2.35546 15.9606 3.11 15.21L5.95 12.38C6.57742 11.7502 7.39679 11.3473 8.2787 11.235C9.1606 11.1227 10.0548 11.3075 10.82 11.76L11.71 10.88C11.2601 10.1123 11.0769 9.2172 11.189 8.33443C11.3012 7.45166 11.7024 6.63083 12.33 6L15.17 3.16C15.5389 2.79108 15.977 2.49868 16.4593 2.29961C16.9415 2.10054 17.4583 1.99872 17.98 2V2ZM8.78 13.22C8.24 13.22 7.73 13.42 7.35 13.8L4.52 16.64C4.24357 16.926 4.05586 17.286 3.97956 17.6764C3.90325 18.0668 3.94161 18.4709 4.09 18.84C4.24331 19.2054 4.50224 19.5168 4.83362 19.7341C5.165 19.9515 5.55373 20.065 5.95 20.06C6.49 20.06 6.99 19.85 7.36 19.48L10.2 16.64C10.4457 16.3885 10.622 16.0775 10.7114 15.7374C10.8008 15.3973 10.8003 15.0398 10.71 14.7L9.13 16.3C8.9417 16.4883 8.6863 16.5941 8.42 16.5941C8.1537 16.5941 7.8983 16.4883 7.71 16.3C7.5217 16.1117 7.41591 15.8563 7.41591 15.59C7.41591 15.3237 7.5217 15.0683 7.71 14.88L9.3 13.3C9.13099 13.2515 8.95581 13.228 8.78 13.23V13.22ZM17.98 4C17.44 4 16.94 4.2 16.58 4.58L13.73 7.42C13.4893 7.67051 13.317 7.97859 13.2295 8.31475C13.1419 8.65092 13.1421 9.00393 13.23 9.34L14.81 7.76C14.8996 7.65532 15.01 7.5703 15.134 7.51027C15.2581 7.45025 15.3932 7.41652 15.5309 7.4112C15.6687 7.40588 15.806 7.42909 15.9343 7.47936C16.0626 7.52964 16.1792 7.6059 16.2766 7.70335C16.3741 7.8008 16.4504 7.91735 16.5006 8.04568C16.5509 8.174 16.5741 8.31134 16.5688 8.44905C16.5635 8.58677 16.5297 8.72191 16.4697 8.84597C16.4097 8.97004 16.3247 9.08035 16.22 9.17L14.64 10.76C14.978 10.8536 15.3349 10.8556 15.674 10.766C16.0131 10.6764 16.3223 10.4983 16.57 10.25L19.41 7.41C19.6943 7.13105 19.8883 6.77323 19.9669 6.38281C20.0456 5.9924 20.0054 5.58736 19.8513 5.22009C19.6973 4.85281 19.4366 4.5402 19.103 4.32268C18.7694 4.10517 18.3782 3.99276 17.98 4V4Z"/>
</svg>
